<svg xmlns="http://www.w3.org/2000/svg" width="1733.3" height="1733.3" version="1.0" viewBox="0 0 1300 1300"><path d="M1202 411a1183 1183 0 0 0-66 71c-8 9-8 11-4 15s6 4 11-1a386 386 0 0 0 31-26 710 710 0 0 1-43 59l-6 7c-7 8-28 29-32 31-4 3-5 5-2 10s6 5 12 2l7-4c8-4 21-15 31-25a325 325 0 0 0 48-62 895 895 0 0 1-4 35c0 2 4 4 8 4s5-2 8-10a262 262 0 0 1 7-26l3-10 21-86c0-4-2-8-5-8l-25 24zM92 491c-2 1-3 3-3 5a70 70 0 0 0 8 23c3 6 11 19 15 23l8 10c13 18 35 36 43 36 7 0 9-9 4-15a857 857 0 0 1-68-83c-2-1-4-1-7 1zM1071 584l-4 2a2685 2685 0 0 0-111 59c0 5 2 8 7 8 7 0 30-7 43-13l32-15 4-2c8-3 26-17 35-25 6-6 7-9 2-13-4-3-4-4-8-2zM183 599c-3 4-3 6 5 13a168 168 0 0 0 64 36 173 173 0 0 0 47 10c12 0 13 0 14-2 2-1 2-3 2-6-1-5 0-5-20-11-27-9-45-16-61-23-27-13-43-20-46-20-2 0-4 1-5 3zM904 657a5038 5038 0 0 1-79 15c-19 3-49 10-51 11-2 2-1 8 1 11 1 2 2 2 15 2a347 347 0 0 0 125-25l9-4-1-5c0-3 0-5-2-6-3-2-2-2-17 1zM362 664l-2 7c1 4 0 4 19 12l39 11c36 7 63 9 87 6 12-2 14-3 14-9s-2-7-16-8l-22-2-24-3-42-8-48-8c-3 0-4 0-6 2zM576 684c-13 1-15 2-15 8l2 5 13 3 18 3a733 733 0 0 0 134-4c3-2 2-8 0-11-2-2-4-2-26-3l-39-1h-88z"/></svg>