<svg id="svg" xmlns="http://www.w3.org/2000/svg" xmlns:xlink="http://www.w3.org/1999/xlink" width="400" height="476.6839378238342" viewBox="0, 0, 400,476.6839378238342"><g id="svgg"><path id="path0" d="M192.127 47.510 C 189.221 48.591,184.259 51.129,181.099 53.150 C 169.708 60.437,169.714 60.436,161.615 58.467 C 141.068 53.473,122.864 61.791,111.927 81.170 C 107.730 88.607,108.182 88.386,96.752 88.588 C 77.014 88.936,69.915 95.933,68.257 116.675 C 67.310 128.531,67.192 128.948,63.694 132.819 C 59.368 137.608,58.911 142.997,62.249 149.891 C 65.953 157.544,65.028 159.420,54.922 164.745 C 23.463 181.324,16.325 216.222,39.905 238.168 C 45.357 243.242,45.596 243.685,45.596 248.717 C 45.596 266.267,67.491 278.622,89.762 273.638 C 99.043 271.561,103.381 266.162,110.821 247.427 C 113.168 241.515,116.129 239.409,122.123 239.384 C 130.946 239.348,138.484 225.183,131.865 221.079 C 119.906 213.663,111.198 190.121,119.632 188.005 C 123.535 187.025,124.636 188.551,126.041 196.891 C 128.362 210.664,135.206 216.417,147.741 215.133 C 153.744 214.518,154.552 214.667,156.204 216.701 C 165.368 227.976,167.841 229.032,180.342 227.001 C 184.865 226.267,190.646 225.978,193.190 226.360 C 202.745 227.792,210.680 223.069,215.327 213.184 C 217.622 208.302,218.365 207.823,225.389 206.704 C 241.009 204.214,248.774 193.980,245.075 180.755 C 242.216 170.529,242.184 170.088,244.039 166.181 C 246.236 161.550,245.623 155.316,242.564 151.178 C 239.658 147.248,239.819 144.268,243.015 142.812 C 247.561 140.741,253.886 148.737,253.886 156.556 C 253.886 159.617,254.055 159.761,256.736 158.979 C 258.303 158.521,262.569 158.076,266.216 157.988 C 272.693 157.832,272.909 157.736,275.583 153.799 C 284.031 141.358,304.275 139.143,313.911 149.604 C 316.046 151.922,317.291 152.332,322.201 152.335 C 331.490 152.342,338.466 158.347,337.627 165.613 C 337.158 169.672,331.708 169.630,329.754 165.552 C 327.791 161.457,324.964 160.307,318.764 161.081 C 313.740 161.709,313.246 161.557,310.341 158.499 C 300.523 148.166,287.819 149.334,280.183 161.270 L 276.517 167.001 269.088 166.339 C 259.682 165.502,252.125 168.585,252.617 173.057 C 255.455 198.855,248.919 210.301,229.002 214.410 C 223.711 215.502,223.105 215.936,220.799 220.282 C 216.366 228.639,207.742 233.988,197.948 234.458 L 192.575 234.715 193.137 238.228 C 195.005 249.902,206.211 255.551,218.917 251.222 C 225.156 249.096,227.295 250.256,229.526 256.972 C 231.852 263.974,235.033 266.321,242.198 266.321 C 246.900 266.321,248.622 266.877,252.461 269.634 C 256.910 272.829,257.241 272.903,261.748 271.697 C 267.274 270.219,269.691 271.143,272.004 275.615 C 275.257 281.907,281.438 283.579,287.526 279.816 L 290.841 277.768 294.995 284.282 C 304.234 298.774,316.894 297.081,323.854 280.423 C 325.099 277.443,325.915 276.664,327.252 277.177 C 352.362 286.813,374.567 263.856,362.953 240.266 C 358.792 231.812,358.660 228.697,362.361 226.214 C 378.860 215.145,381.420 200.966,369.480 186.776 C 366.272 182.965,366.192 181.414,369.015 177.824 C 375.587 169.470,370.066 157.513,359.637 157.513 C 355.243 157.513,351.930 154.047,352.865 150.428 C 360.549 120.685,345.394 98.698,315.164 95.731 C 306.002 94.832,305.086 94.214,303.174 87.637 C 299.222 74.042,284.118 68.171,272.139 75.575 C 267.846 78.228,265.250 78.284,262.057 75.790 C 257.839 72.497,255.217 72.188,251.416 74.537 C 244.481 78.823,242.071 77.604,237.224 67.355 C 229.244 50.481,208.580 41.388,192.127 47.510 M196.450 94.330 C 197.991 94.916,200.599 96.528,202.245 97.913 C 203.891 99.298,205.845 100.198,206.589 99.913 C 215.401 96.532,229.692 109.431,228.817 119.976 C 228.234 127.010,222.113 125.815,219.838 118.223 C 217.887 111.713,213.187 108.442,206.966 109.267 C 202.211 109.898,201.665 109.718,197.843 106.264 C 194.171 102.947,193.194 102.591,187.769 102.591 C 181.301 102.591,179.275 101.441,179.275 97.772 C 179.275 93.588,189.243 91.590,196.450 94.330 M297.998 105.149 C 306.138 107.572,311.337 113.702,315.383 125.648 C 315.721 126.645,316.968 127.461,318.154 127.461 C 325.934 127.461,332.068 137.369,328.461 144.110 C 326.016 148.677,320.207 146.163,320.207 140.537 C 320.207 137.272,318.274 135.751,314.123 135.751 C 309.930 135.751,306.736 133.284,306.736 130.046 C 306.736 117.383,296.141 109.679,284.374 113.785 C 277.632 116.138,275.211 116.010,274.150 113.245 C 271.658 106.751,286.479 101.719,297.998 105.149 M333.842 192.862 C 335.394 193.968,336.984 195.910,337.374 197.177 C 337.764 198.445,340.524 201.676,343.508 204.358 C 354.765 214.476,353.775 231.140,341.562 237.129 C 335.251 240.224,333.847 234.160,339.378 227.698 C 345.048 221.075,343.649 213.695,335.957 209.648 C 333.557 208.386,331.747 206.287,330.422 203.230 L 328.453 198.688 323.822 199.323 C 319.672 199.892,319.014 199.688,317.490 197.362 C 313.215 190.837,326.042 187.308,333.842 192.862 M159.353 235.492 C 157.996 236.548,157.473 240.698,156.521 257.942 C 155.106 283.587,154.865 284.223,149.925 275.389 C 140.029 257.695,131.801 246.632,128.535 246.632 C 122.361 246.632,123.165 250.354,132.398 264.514 C 141.497 278.467,147.683 289.216,150.733 296.373 C 151.826 298.938,153.405 301.852,154.241 302.850 C 155.767 304.670,161.658 305.421,161.658 303.795 C 161.658 303.318,162.590 294.501,163.729 284.203 C 166.729 257.083,166.962 237.632,164.310 235.679 C 161.854 233.870,161.458 233.855,159.353 235.492 M190.187 255.289 C 188.321 256.653,188.332 257.317,190.569 278.865 C 191.835 291.059,193.148 307.473,193.488 315.339 C 194.045 328.235,194.316 329.790,196.247 331.142 C 199.973 333.752,201.954 332.990,203.797 328.238 C 206.186 322.079,221.603 292.064,226.578 283.887 C 232.225 274.604,232.427 273.878,230.028 271.479 C 225.669 267.120,223.577 269.578,209.845 295.191 L 202.591 308.720 201.888 300.215 C 198.356 257.445,196.578 250.616,190.187 255.289 M107.811 262.104 C 106.870 263.862,107.641 266.421,112.279 276.933 C 129.218 315.325,139.896 360.287,139.896 393.221 C 139.896 404.600,141.456 406.341,157.513 412.892 C 175.545 420.249,181.784 424.374,196.215 438.485 C 214.089 455.961,215.910 455.476,216.986 432.950 C 219.483 380.676,233.711 328.613,254.921 294.143 C 259.573 286.582,258.892 282.902,252.840 282.902 C 250.626 282.902,246.366 289.575,238.418 305.493 C 221.916 338.546,210.532 382.510,208.715 420.207 C 208.386 427.047,207.914 433.286,207.666 434.072 C 207.377 434.991,203.799 432.204,197.649 426.270 C 186.725 415.729,180.888 412.115,162.694 404.632 L 149.741 399.304 148.573 383.321 C 145.654 343.402,134.354 300.377,118.388 268.394 C 114.121 259.847,110.250 257.545,107.811 262.104 M208.657 347.200 C 202.937 349.361,191.841 407.008,195.742 414.297 C 199.643 421.587,203.705 416.638,204.515 403.607 C 205.296 391.045,208.356 373.592,211.870 361.658 C 215.650 348.823,214.775 344.887,208.657 347.200 " stroke="none" fill="#000000" fill-rule="evenodd"></path></g></svg>