<svg id="svg" xmlns="http://www.w3.org/2000/svg" xmlns:xlink="http://www.w3.org/1999/xlink" width="400" height="503.97553516819573" viewBox="0, 0, 400,503.97553516819573" version="1.1"><g id="svgg"><path id="path0" d="M197.400 14.031 C 170.868 18.654,145.557 38.022,135.758 61.200 C 132.048 69.974,134.165 69.792,143.495 60.534 C 158.938 45.211,171.330 36.865,185.806 32.036 C 209.284 24.206,237.837 26.923,267.898 39.848 C 279.451 44.816,281.207 43.978,273.938 36.965 C 256.300 19.947,222.160 9.717,197.400 14.031 M300.745 43.601 C 297.713 44.084,292.391 45.460,290.081 46.358 C 289.046 46.761,287.244 47.315,286.076 47.591 C 284.218 48.029,283.326 48.655,278.934 52.605 C 272.139 58.717,271.177 59.205,265.057 59.648 C 255.420 60.346,247.379 62.424,240.200 66.073 C 236.908 67.746,235.725 68.141,233.515 68.306 L 230.829 68.505 230.183 70.450 C 229.718 71.850,228.506 73.544,225.856 76.497 C 219.870 83.169,217.558 86.670,218.139 88.185 C 218.535 89.218,219.571 88.706,226.267 84.161 C 247.846 69.515,266.912 68.349,290.742 80.218 C 303.692 86.668,309.157 90.935,315.774 99.763 C 336.748 127.744,336.378 144.865,314.476 159.913 C 305.938 165.779,308.440 167.577,319.303 163.381 C 333.409 157.934,341.493 147.408,342.743 132.861 C 343.312 126.230,343.710 125.665,351.060 121.041 C 353.067 119.778,354.766 119.015,355.842 118.894 L 357.510 118.706 359.201 121.602 C 360.131 123.194,362.287 126.630,363.992 129.237 C 380.738 154.842,378.413 176.074,356.843 194.514 C 347.396 202.590,359.726 202.419,371.505 194.310 C 386.129 184.243,392.250 169.738,388.998 152.860 C 386.136 138.009,373.110 122.095,360.800 118.411 C 357.456 117.410,356.843 115.373,358.373 110.342 C 362.061 98.211,359.291 86.267,349.222 70.889 C 336.526 51.496,317.705 40.902,300.745 43.601 M186.000 46.249 C 170.541 48.185,167.494 49.158,158.896 54.905 C 134.929 70.926,131.133 97.678,150.109 116.835 C 156.262 123.047,157.716 121.649,154.245 112.858 C 146.129 92.304,148.680 80.980,164.028 69.418 C 172.857 62.767,178.967 60.652,194.200 58.974 C 208.558 57.392,216.752 58.819,225.365 64.398 C 229.735 67.229,230.001 67.281,229.996 65.300 C 229.967 53.973,206.267 43.711,186.000 46.249 M306.814 55.803 C 319.218 58.412,331.330 68.879,342.682 86.800 C 350.037 98.411,351.548 107.367,347.643 116.197 C 344.978 122.221,342.503 121.421,339.609 113.600 C 330.280 88.388,315.510 73.861,289.000 63.823 C 286.360 62.823,283.750 61.670,283.200 61.259 C 277.836 57.259,294.944 53.306,306.814 55.803 M105.200 79.046 C 66.525 86.004,44.981 117.602,54.641 153.200 C 57.305 163.016,61.471 169.901,63.512 167.859 C 64.132 167.239,64.188 166.214,64.076 157.485 C 63.623 122.202,76.472 100.361,106.506 85.362 C 113.108 82.064,112.223 77.782,105.200 79.046 M119.800 82.189 C 114.210 83.843,112.262 84.737,109.746 86.803 C 90.204 102.842,88.327 130.473,105.167 154.200 C 110.432 161.618,110.356 161.294,109.175 171.382 C 107.242 187.888,117.495 203.600,130.198 203.600 C 134.575 203.600,134.490 201.924,129.859 196.907 C 122.153 188.560,121.293 179.898,126.257 160.633 C 129.084 149.661,131.623 145.200,137.700 140.523 C 141.158 137.862,140.659 135.949,136.353 135.359 C 131.769 134.731,126.222 137.392,120.644 142.896 C 114.118 149.336,112.790 148.233,109.769 133.869 C 105.929 115.606,109.345 103.006,121.961 88.904 C 128.419 81.684,127.818 79.817,119.800 82.189 M191.149 105.461 C 189.710 107.193,190.474 117.238,192.604 124.578 C 199.714 149.086,219.879 158.443,231.113 142.447 C 236.830 134.306,235.072 130.771,227.318 134.817 C 217.594 139.891,215.649 138.399,200.976 114.600 C 195.311 105.412,192.986 103.250,191.149 105.461 M239.780 147.787 C 237.228 153.893,243.655 166.047,252.006 170.911 C 263.878 177.824,283.630 173.706,293.412 162.277 C 297.699 157.269,295.414 156.177,284.342 157.944 C 262.097 161.494,256.999 160.463,246.807 150.348 C 242.161 145.739,240.837 145.256,239.780 147.787 M47.200 176.642 C 9.691 184.752,2.348 220.802,31.984 251.345 C 38.165 257.716,42.761 260.795,44.247 259.561 C 45.315 258.675,44.701 256.983,39.524 246.559 C 22.096 211.467,24.382 199.587,51.821 182.681 C 60.673 177.226,58.377 174.226,47.200 176.642 M242.000 177.458 C 237.018 179.468,223.600 212.896,216.414 241.200 C 211.614 260.103,209.713 273.208,208.631 294.834 C 208.107 305.299,207.798 307.200,206.615 307.200 C 205.080 307.200,203.981 303.617,195.204 270.000 C 187.630 240.990,187.479 240.463,186.370 239.053 C 184.882 237.161,183.899 237.299,175.732 240.536 C 163.394 245.426,156.764 247.231,149.000 247.812 C 142.367 248.308,142.153 249.266,146.631 258.411 C 160.571 286.875,166.798 310.476,166.800 334.845 C 166.800 349.206,164.429 351.047,158.968 340.926 C 127.329 282.297,97.045 244.902,75.313 237.632 C 67.092 234.882,66.585 237.395,73.038 248.904 C 77.851 257.490,78.407 259.289,76.784 261.017 C 75.504 262.379,74.366 262.253,71.255 260.405 C 65.648 257.074,56.123 254.106,54.915 255.313 C 53.841 256.387,54.984 258.193,60.032 263.400 C 67.572 271.176,67.570 272.047,60.006 277.035 C 53.162 281.548,52.745 283.478,58.284 285.009 C 75.969 289.896,89.598 299.944,103.252 318.159 C 126.892 349.694,142.941 398.427,153.170 469.735 C 155.502 485.991,154.504 484.945,170.200 487.590 C 208.193 493.993,240.876 493.784,247.113 487.099 C 248.460 485.655,248.719 483.123,249.187 466.800 C 250.097 435.086,253.933 397.312,259.240 367.800 C 273.830 286.671,300.540 239.604,338.000 229.011 C 346.199 226.693,345.953 227.370,343.389 214.153 C 340.385 198.664,340.221 198.573,326.260 204.627 C 288.318 221.078,263.187 253.773,249.567 304.400 C 247.723 311.257,246.436 317.561,243.851 332.409 C 242.668 339.199,242.037 341.343,241.171 341.510 C 239.121 341.905,238.598 336.006,238.611 312.600 C 238.643 256.016,248.499 217.097,269.353 191.219 C 273.332 186.280,273.427 184.588,269.799 183.195 C 265.004 181.355,243.395 176.895,242.000 177.458 M252.954 188.452 C 255.563 189.640,255.489 190.071,249.853 206.600 C 232.158 258.492,226.260 305.608,232.226 347.400 C 233.788 358.341,237.173 370.690,239.220 372.915 L 240.403 374.200 241.340 373.150 C 242.495 371.854,243.014 369.317,243.795 361.138 C 245.153 346.916,252.538 317.124,259.593 297.400 C 273.501 258.523,296.440 227.202,322.458 211.565 C 327.872 208.311,330.278 208.221,332.394 211.191 C 335.161 215.077,333.806 217.206,327.178 219.388 C 294.986 229.985,271.367 270.896,254.426 345.400 C 246.566 379.972,239.476 430.744,237.587 466.000 C 236.908 478.679,236.454 479.974,232.122 481.595 C 222.449 485.214,200.105 485.460,178.314 482.187 C 167.278 480.530,167.487 480.762,164.991 467.319 C 145.825 364.103,117.531 301.788,82.452 285.535 C 75.166 282.159,74.802 281.946,74.539 280.898 C 74.399 280.343,74.553 279.368,74.893 278.656 C 76.229 275.853,76.163 275.144,74.220 271.459 C 70.900 265.164,72.566 262.140,77.635 265.259 C 82.785 268.429,88.227 270.013,89.520 268.720 C 90.349 267.891,90.049 265.473,88.609 261.367 C 80.951 239.533,108.044 271.372,134.077 314.800 C 142.045 328.092,151.511 345.090,158.181 358.082 C 166.561 374.406,168.146 375.339,170.801 365.510 C 177.102 342.182,173.933 308.737,161.771 270.200 C 157.554 256.840,157.417 257.111,169.662 254.665 C 182.569 252.087,182.063 251.744,186.381 266.000 C 187.747 270.510,192.343 285.540,196.594 299.400 C 200.846 313.260,205.447 328.380,206.819 333.000 C 211.070 347.313,212.981 351.509,214.447 349.744 C 214.891 349.209,215.050 345.524,215.252 331.039 C 215.508 312.657,215.617 309.956,216.634 296.600 C 219.395 260.357,228.113 224.818,240.593 198.931 C 245.579 188.588,248.262 186.314,252.954 188.452 M213.000 193.677 C 212.120 194.140,209.420 195.911,207.000 197.611 C 181.113 215.803,168.171 217.288,150.000 204.152 C 141.065 197.693,138.989 198.957,143.650 208.017 C 155.771 231.573,184.201 233.990,204.800 213.217 C 215.709 202.216,221.075 189.428,213.000 193.677 M384.251 200.500 C 383.939 200.995,383.558 202.635,383.405 204.143 C 382.698 211.119,379.087 216.839,368.627 227.556 C 359.702 236.700,357.434 237.285,352.965 231.597 C 349.210 226.817,346.807 228.355,347.336 235.200 C 347.753 240.608,350.552 245.045,354.712 246.896 C 371.010 254.147,397.933 222.989,390.845 205.078 C 389.093 200.651,385.659 198.267,384.251 200.500 " stroke="none" fill="#52cca4" fill-rule="evenodd"></path></g></svg>